<svg version="1.1" id="Layer_1" xmlns="http://www.w3.org/2000/svg" x="0" y="0" viewBox="0 0 400 600" xml:space="preserve"><style>.st0{enable-background:new}.st0,.st1{opacity:.1}</style><path class="st0" d="M124.3 100.7c-.8-.8-2.1-.9-3-.2-5 4-10.6 9.5-14.9 14.9-1.3-.3-2.6 0-3.8 1-2.1 1.9-3 4.8-2.4 7.6.1.4.4.7.8.8 2.2.5 4.6 0 6.4-1.4.2-.1.2-.3.1-.5s-.3-.2-.5-.1c-1.7 1.2-3.8 1.7-5.8 1.3-.1 0-.2-.1-.3-.3-.5-2.5.3-5.1 2.2-6.9 3.2-3 7.8 1.6 5.1 4.8-.1.2-.1.4 0 .5.2.1.4.1.5 0 .9-1.1 1.2-2.4.9-3.6 5.2-4.2 10.7-9.8 14.9-14.9.7-.9.7-2.2-.2-3zm-14.9 17.2c-.5-1-1.3-1.8-2.3-2.3.3-.4.6-.7.8-1l2.5 2.5c-.3.3-.7.5-1 .8zm14.5-14.6c-2.9 3.6-6.5 7.5-10.2 10.9-.3-.3-.6-.6-.8-.9-.1-.1-.4-.1-.5 0s-.1.4 0 .5c.3.3.6.6.8.9-.8.7-1.5 1.4-2.3 2l-2.5-2.5c.6-.7 1.3-1.5 2-2.3.3.2.5.5.8.7.1.1.4.1.5 0s.1-.4 0-.5c-.3-.2-.5-.5-.8-.7 3.4-3.7 7.2-7.3 10.9-10.2.6-.5 1.5-.4 2.1.1.5.4.5 1.3 0 2zm.3 196.7h-2.5c-.4 0-.8.3-.8.8v2.5c0 .4.3.8.8.8h2.5c.4 0 .8-.3.8-.8v-2.5c0-.5-.3-.8-.8-.8zm.1 3.2h-2.5v-2.5h2.5v2.5zm-21.1-3.2h-2.5c-.4 0-.8.3-.8.8v2.5c0 .4.3.8.8.8h2.5c.4 0 .8-.3.8-.8v-2.5c0-.5-.4-.8-.8-.8zm0 3.2h-2.5v-2.5h2.5v2.5zm21 17.8h-2.5c-.4 0-.8.3-.8.8v2.5c0 .4.3.8.8.8h2.5c.4 0 .8-.3.8-.8v-2.5c0-.4-.3-.8-.8-.8zm.1 3.2c0 .1 0 .1 0 0h-2.5v-2.5h2.5v2.5zm-21.1-3.2h-2.5c-.4 0-.8.3-.8.8v2.5c0 .4.3.8.8.8h2.5c.4 0 .8-.3.8-.8v-2.5c0-.4-.4-.8-.8-.8zm0 3.2c0 .1 0 .1 0 0h-2.5v-2.5h2.5v2.5zm19.8-12.5c-.2 0-.4.2-.4.4v.3c0 .2.2.4.4.4s.4-.2.4-.4v-.3c0-.2-.2-.4-.4-.4zm0-2c-.2 0-.4.2-.4.4v.3c0 .2.2.4.4.4s.4-.2.4-.4v-.4c0-.2-.2-.3-.4-.3zm0 8.3c-.2 0-.4.2-.4.4v.3c0 .2.2.4.4.4s.4-.2.4-.4v-.3c0-.3-.2-.4-.4-.4zm0-12.5c-.2 0-.4.2-.4.4v.3c0 .2.2.4.4.4s.4-.2.4-.4v-.3c0-.2-.2-.4-.4-.4zm0 2.1c-.2 0-.4.2-.4.4v.3c0 .2.2.4.4.4s.4-.2.4-.4v-.3c0-.2-.2-.4-.4-.4zm0 8.3c-.2 0-.4.2-.4.4v.3c0 .2.2.4.4.4s.4-.2.4-.4v-.3c0-.2-.2-.4-.4-.4zm0-2.1c-.2 0-.4.2-.4.4v.3c0 .2.2.4.4.4s.4-.2.4-.4v-.3c0-.2-.2-.4-.4-.4zm-21-2.1c-.2 0-.4.2-.4.4v.3c0 .2.2.4.4.4s.4-.2.4-.4v-.3c-.1-.2-.2-.4-.4-.4zm0 2.1c-.2 0-.4.2-.4.4v.3c0 .2.2.4.4.4s.4-.2.4-.4v-.3c-.1-.2-.2-.4-.4-.4zm0-4.1c-.2 0-.4.2-.4.4v.3c0 .2.2.4.4.4s.4-.2.4-.4v-.4c-.1-.2-.2-.3-.4-.3zm0 6.2c-.2 0-.4.2-.4.4v.3c0 .2.2.4.4.4s.4-.2.4-.4v-.3c-.1-.2-.2-.4-.4-.4zm0-8.3c-.2 0-.4.2-.4.4v.3c0 .2.2.4.4.4s.4-.2.4-.4v-.3c-.1-.2-.2-.4-.4-.4zm0-2.1c-.2 0-.4.2-.4.4v.3c0 .2.2.4.4.4s.4-.2.4-.4v-.3c-.1-.2-.2-.4-.4-.4zm0 12.5c-.2 0-.4.2-.4.4v.3c0 .2.2.4.4.4s.4-.2.4-.4v-.3c-.1-.3-.2-.4-.4-.4zm10.5-16.4h-.3c-.2 0-.4.2-.4.4s.2.4.4.4h.3c.2 0 .4-.2.4-.4s-.2-.4-.4-.4zm-2.1 0h-.4c-.2 0-.4.2-.4.4s.2.4.4.4h.3c.2 0 .4-.2.4-.4s-.1-.4-.3-.4zm-2.1 0h-.3c-.2 0-.4.2-.4.4s.2.4.4.4h.3c.2 0 .4-.2.4-.4s-.2-.4-.4-.4zm-2.1 0h-.3c-.2 0-.4.2-.4.4s.2.4.4.4h.3c.2 0 .4-.2.4-.4s-.2-.4-.4-.4zm12.5 0h-.3c-.2 0-.4.2-.4.4s.2.4.4.4h.3c.2 0 .4-.2.4-.4s-.2-.4-.4-.4zm-4.2 0h-.3c-.2 0-.4.2-.4.4s.2.4.4.4h.3c.2 0 .4-.2.4-.4s-.2-.4-.4-.4zm2.1 0h-.3c-.2 0-.4.2-.4.4s.2.4.4.4h.3c.2 0 .4-.2.4-.4s-.2-.4-.4-.4zm2.1 21.1h-.3c-.2 0-.4.2-.4.4s.2.4.4.4h.3c.2 0 .4-.2.4-.4s-.2-.4-.4-.4zm-12.5 0h-.3c-.2 0-.4.2-.4.4s.2.4.4.4h.3c.2 0 .4-.2.4-.4s-.2-.4-.4-.4zm6.3 0h-.3c-.2 0-.4.2-.4.4s.2.4.4.4h.3c.2 0 .4-.2.4-.4s-.2-.4-.4-.4zm-2.1 0h-.4c-.2 0-.4.2-.4.4s.2.4.4.4h.3c.2 0 .4-.2.4-.4s-.1-.4-.3-.4zm-2.1 0h-.3c-.2 0-.4.2-.4.4s.2.4.4.4h.3c.2 0 .4-.2.4-.4s-.2-.4-.4-.4zm6.2 0h-.3c-.2 0-.4.2-.4.4s.2.4.4.4h.3c.2 0 .4-.2.4-.4s-.2-.4-.4-.4zm2.1 0h-.3c-.2 0-.4.2-.4.4s.2.4.4.4h.3c.2 0 .4-.2.4-.4s-.2-.4-.4-.4zm-2.7-15c-1 0-1.7.8-1.7 1.7 0 1 .8 1.7 1.7 1.7 1 0 1.7-.8 1.7-1.7s-.8-1.7-1.7-1.7zm0 2.8c-.6 0-1-.5-1-1 0-.6.5-1 1-1 .6 0 1 .5 1 1s-.5 1-1 1zm5.4-5.5h-6c-.2 0-.4.2-.4.4s.2.4.4.4h5.9v5.9c0 .2.2.4.4.4s.4-.2.4-.4v-5.9c0-.5-.3-.8-.7-.8z"/><path class="st0" d="M119.6 313c-.2 0-.4.2-.4.4v3.6l-3-4c-.2-.2-.4-.3-.6-.3 0 0-.4 0-.6.3l-1.5 2-2.4-3.2c-.4-.5-1-.5-1.4 0l-3.9 5.2v-11.2h5.8c.2 0 .4-.2.4-.4s-.2-.4-.4-.4h-5.9c-.4 0-.7.3-.7.7v13.6c0 .4.3.7.7.7h13.6c.4 0 .7-.3.7-.7v-5.9c0-.2-.2-.4-.4-.4zm-13.8 6.2v-1l4.5-6 .1-.1s.1 0 .1.1l2.5 3.4-2.7 3.7-4.5-.1zm13.4 0h-8c0-.1 4.3-5.8 4.4-5.9l3.6 4.8v1.1zm205.6-198.6l-2.4-2.4c-.1-.1-.3-.2-.4-.2h-.4v-4.7c0-.2-.2-.4-.4-.4s-.4.2-.4.4V124l-2.1-2.1v-15.1c0-.3-.3-.6-.6-.6H303l-2.1-2.1h10.7c.2 0 .4-.2.4-.4s-.2-.4-.4-.4h-4.7v-.3c0-.2-.1-.3-.2-.4l-2.4-2.4c-.2-.2-.4-.2-.6-.1s-.4.3-.4.5v2.8h-2.8c-.5 0-.8.6-.4 1l2.4 2.4c.1.1.3.2.4.2h.4v12.9c0 .4.1.7.3 1l-1.9 1.9c-.1.1-.1.4 0 .5s.4.1.5 0l1.9-1.9c.3.2.6.3 1 .3H318v.4c0 .2.1.3.2.4l2.4 2.4c.4.4 1 .1 1-.4v-2.8h2.8c.2 0 .5-.1.5-.4.1-.3.1-.5-.1-.7zm-20.7-19.7l2.1 2.1v.3h-2.1v-2.4zm2.9 6.1h10.6L307 117.5V107zm11 13.9h-12.9c-.6 0-1.1-.5-1.1-1.1v-12.9h2.1v11.2c0 .3.3.6.6.6H318v2.2zm0-2.9h-10.6l10.6-10.6V118zm3.6 2.9v-2.1h.3l2.1 2.1h-2.4z"/><path class="st0" d="M323.2 101.8c-.1-.1-.4-.1-.5 0l-1.9 1.9c-.3-.2-.6-.3-1-.3h-6.5c-.2 0-.4.2-.4.4s.2.4.4.4h6.5c.6 0 1.1.5 1.1 1.1v6.5c0 .2.2.4.4.4s.4-.2.4-.4v-6.5c0-.4-.1-.7-.3-1l1.9-1.9c0-.2 0-.5-.1-.6zm1.1 215.4l-3.8-1.8 3.8-1.8c.9-.4.9-1.7 0-2.2l-3.8-1.8 3.8-1.8c.9-.4.9-1.7 0-2.2l-5.6-2.7c-.2-.1-.4 0-.5.2s0 .4.2.5l5.6 2.7c.4.2.4.7 0 .8-.4.2-10.8 5.2-11.3 5.5-.1.1-.3.1-.4 0-.4-.2-11.1-5.3-11.3-5.5-.4-.2-.4-.7 0-.8l11.3-5.5c.1-.1.3-.1.4 0l4.2 2c.2.1.4 0 .5-.2s0-.4-.2-.5l-4.2-2c-.3-.2-.7-.2-1 0l-11.3 5.5c-.9.4-.9 1.7 0 2.2l3.8 1.8-3.8 1.8c-.9.4-.9 1.7 0 2.2l3.8 1.8-3.8 1.8c-.9.4-.9 1.7 0 2.2l11.3 5.5c.3.2.7.2 1 0l4.6-2.2c.2-.1.3-.3.2-.5-.1-.2-.3-.3-.5-.2l-4.6 2.2c-.1.1-.3.1-.4 0l-11.3-5.5c-.4-.2-.4-.7 0-.8l4.3-2.1 6.7 3.2c.3.2.7.2 1 0l6.7-3.2 4.3 2.1c.4.2.4.7 0 .8l-5.2 2.5c-.2.1-.3.3-.2.5.1.2.3.3.5.2l5.2-2.5c.9-.5.9-1.8 0-2.2zm-11.6 1.1c-.1.1-.3.1-.4 0l-11.3-5.5c-.4-.2-.4-.7 0-.8l4.3-2.1 6.7 3.2c.3.2.7.2 1 0l6.7-3.2 4.3 2.1c.4.2.4.7 0 .8l-11.3 5.5z"/><path class="st1" d="M120.3 510.3h-6.4c-.2 0-.4.2-.4.4s.2.4.4.4h6.4c.2 0 .4-.2.4-.4s-.2-.4-.4-.4zm0 1.9h-6.4c-.2 0-.4.2-.4.4s.2.4.4.4h6.4c.2 0 .4-.2.4-.4s-.2-.4-.4-.4zm0 1.9h-6.4c-.2 0-.4.2-.4.4s.2.4.4.4h6.4c.2 0 .4-.2.4-.4s-.2-.4-.4-.4zm0 2h-6.4c-.2 0-.4.2-.4.4s.2.4.4.4h6.4c.2 0 .4-.2.4-.4s-.2-.4-.4-.4zm0 1.9H103c-.2 0-.4.2-.4.4s.2.4.4.4h17.3c.2 0 .4-.2.4-.4s-.2-.4-.4-.4zm0 2H103c-.2 0-.4.2-.4.4s.2.4.4.4h17.3c.2 0 .4-.2.4-.4s-.2-.4-.4-.4zm0 1.9H103c-.2 0-.4.2-.4.4s.2.4.4.4h17.3c.2 0 .4-.2.4-.4s-.2-.4-.4-.4zm-8.9-11.7h-3.1c-.2 0-.4.2-.4.4s.2.4.4.4h2.3l-3.1 2.2-3.1-2.2h2.3c.2 0 .4-.2.4-.4s-.2-.4-.4-.4h-3.1c-.4 0-.7.3-.7.7v5.4c0 .4.3.7.7.7h8c.4 0 .7-.3.7-.7v-5.4c-.3-.4-.6-.7-.9-.7zm-8 1.1l3.3 2.3-3.3 2.3v-4.6zm.8 4.9l3.1-2.2 3.1 2.2h-6.2zm7.1-.4l-3.3-2.3 3.3-2.3v4.6z"/><path class="st0" d="M124.2 500h-21.7c-.4 0-.8.4-.8.8v3.9h-.9c-.4 0-.8.4-.8.8v18.9c0 .4.4.8.8.8h21.7c.4 0 .8-.4.8-.8v-3.9h.9c.4 0 .8-.4.8-.8v-7.5c0-.2-.2-.4-.4-.4s-.4.2-.4.4v7.5s0 .1-.1.1h-.9v-14.2c0-.4-.4-.8-.8-.8h-20.1v-1.1h21.8v6.7c0 .2.2.4.4.4s.4-.2.4-.4v-9.6c.1-.4-.3-.8-.7-.8zm-1.6 24.4l-21.8.1s-.1 0-.1-.1v-16h21.8l.1 16zm-18.8-18.9h18.7s.1 0 .1.1v2.1h-18.8v-2.2zm-.8 0v2.2h-2.3v-2.1s0-.1.1-.1h2.2zm1.7-2.6h-2.3v-2.1s0-.1.1-.1h2.2v2.2zm19.6 0h-18.8v-2.2h18.7s.1 0 .1.1v2.1zM324.8 504l-1.8-1.8c-.1-.1-.4-.1-.5 0s-.1.4 0 .5l.8.8-8.4 8.4-2.8-2.8 1.1-1.1.7.7c.1.1.4.1.5 0s.1-.4 0-.5l-.7-.7 1.3-1.3.7.7c.1.1.4.1.5 0s.1-.4 0-.5l-.7-.7 1.3-1.3.7.7c.1.1.4.1.5 0s.1-.4 0-.5l-.7-.7 1.3-1.3.7.7c.1.1.4.1.5 0s.1-.4 0-.5l-.7-.7 1.2-1.2h.2l.7.7c.1.1.4.1.5 0s.1-.4 0-.5l-.7-.7c-.3-.3-.9-.3-1.2 0l-8.4 8.4-4.6-4.6-.1-.1c-.1 0-3.9-1.7-4-1.7-.4-.2-.9.3-.7.7.1.3.9 2.2 1 2.4l.7 1.6s0 .1.1.1l4.6 4.6-8.2 8.2c-.3.3-.3.9 0 1.2l3.7 3.7c.3.3.9.3 1.2 0l8.2-8.2 7.1 7.1c.2.2.5.3.8.3s.6-.1.8-.3l1.5-1.5c.4-.4.4-1.1 0-1.6l-7.1-7.1 8.4-8.4c.3-.4.3-.9 0-1.2zm-21.2.6l-.6-1.5 1.5.6-.9.9zm.3.7l1.3-1.3.9.4-1.8 1.8-.4-.9zm-.4 17.9l-2.7-2.7v-.2l1.2-1.2.7.7c.1.1.4.1.5 0s.1-.4 0-.5l-.7-.7 1.3-1.3.7.7c.1.1.4.1.5 0s.1-.4 0-.5l-.7-.7 1.3-1.3.7.7c.1.1.4.1.5 0s.1-.4 0-.5l-.7-.7 1.3-1.3.7.7c.1.1.4.1.5 0s.1-.4 0-.5l-.7-.7.9-.9 2.8 2.8-8.1 8.1zm1.1 1c0 .1 0 .1 0 0 0 .1 0 .1 0 0h-.2l-.5-.5 8.3-8.3.5.5-8.1 8.3zm18.4-3.1c.1.1.1.4 0 .5l-1.5 1.5c-.1.1-.2.1-.3.1-.1 0-.2 0-.3-.1l-1.3-1.3 2-2 1.4 1.3zm-2.7-2.7l.9.9-2 2-.9-.9c.2-.2 1.7-1.8 2-2zm-.6-.5l-.7.7-4.7-4.7c-.1-.1-.4-.1-.5 0s-.1.4 0 .5l4.7 4.7-.7.7-13.1-13.1.7-.7 7.2 7.2c.1.1.4.1.5 0s.1-.4 0-.5l-7.2-7.2.7-.7c.7.6 12.1 12.1 13.1 13.1zm4.5-13.3l-8.4 8.4-.5-.5 8.4-8.4.5.5c.1-.1.1 0 0 0z"/></svg>