<svg version="1.1" id="Layer_1" xmlns="http://www.w3.org/2000/svg" x="0" y="0" width="30" height="30" viewBox="0 0 250 250" xml:space="preserve"><style>.st0{fill:#264de4}.st1{fill:#2965f1}.st2{fill:#ebebeb}.st3{fill:#fff}</style><path class="st0" d="M213.6 49.1l-16.1 180.8-72.6 20.1-72.3-20.1L36.4 49.1h177.2z"/><path class="st1" d="M183.6 218.4l13.8-154.5H125v170.7l58.6-16.2z"/><path class="st2" d="M73.4 131l2 22.2H125V131H73.4zM125 86.1H69.4l2 22.2H125V86.1zm0 125.5v-23.1h-.1l-24.7-6.7-1.6-17.7H76.4l3.1 34.8 45.4 12.6.1.1z"/><path d="M78.1 0H105v11.2H89.4v11.2H105v11.2H78.1V0zm32.3 0h26.9v9.8h-15.6v2h15.6v22.5h-26.9V23.9H126v-2h-15.6V0zm32.2 0h26.9v9.8h-15.6v2h15.6v22.5h-26.9V23.9h15.6v-2h-15.6V0z"/><path class="st3" d="M152.2 153.1l-2.6 28.8-24.7 6.7v23.1l45.5-12.6.3-3.7 5.2-58.4.5-6 4-44.9h-55.5v22.2h31.2l-2 22.7h-29.2v22.2l27.3-.1z"/></svg>