<svg version="1.1" id="Layer_1" xmlns="http://www.w3.org/2000/svg" x="0" y="0" viewBox="0 0 512 512" xml:space="preserve"><style>.st0{fill:none;stroke:#000;stroke-width:10;stroke-miterlimit:10}</style><path class="st0" d="M497.2 80.9H14.9M471.8 46.7h-27.4M435.1 46.7h-27.3M398.5 46.7h-27.4M281.5 109.5h183.6M281.5 145.3h183.6M281.5 181.2h183.6M281.5 217h183.6M51.9 251.7h413.2M51.9 286.4h413.2M451.1 397.3H60.9c-25.3 0-46-20.7-46-46V60.9c0-25.3 20.7-46 46-46h390.3c25.3 0 46 20.7 46 46v290.4c-.1 25.3-20.8 46-46.1 46zM14.9 312.4h482.2M200.3 353h75.3m9.5 0h26.6m-149.2 93.2h186.9c.4 0 .7.3.7.7v49.5c0 .4-.3.7-.7.7H162.5c-.4 0-.7-.3-.7-.7v-49.5c0-.4.3-.7.7-.7zm56.1-48.9v48.9m77.3-48.9v48.9"/><path class="st0" d="M105.1 109.5l-53.2 53.2 53.8 53.7M192.5 216.4l53.1-53.2-53.7-53.7M163.8 108.7l-30 108.6"/></svg>