<svg version="1.1" id="Layer_1" xmlns="http://www.w3.org/2000/svg" x="0" y="0" viewBox="0 0 512 512" xml:space="preserve"><style>.st0{fill:none;stroke:#000;stroke-width:10;stroke-miterlimit:10}</style><path class="st0" d="M451.1 397.3H60.9c-25.3 0-46-20.7-46-46V60.9c0-25.3 20.7-46 46-46h390.3c25.3 0 46 20.7 46 46v290.4c-.1 25.3-20.8 46-46.1 46zM14.9 312.4h482.2M200.3 353h75.3M285.1 353h26.6"/><path class="st0" d="M85.5 312.4V161.1l38.6-74.8 37.7 74.8v151.3M161.8 161.1H85.5M124.1 161.1v151.3M227.7 312.4v-38.6l10.2-81s-19.3-8.2-19.3-31.7c-.1-24.8 38.9-74.7 38.9-74.7s38.5 51.2 38.3 74.7c-.2 23.9-20.2 31.7-20.2 31.7l8.6 81v38.6M284.3 273.8h-56.6M348.3 312.4v-226h77.3v226M397.3 128.8h28.3M397.3 179.1h28.3M397.3 229.3h28.3M397.3 279.5h28.3M162.5 446.2h186.9c.4 0 .7.3.7.7v49.5c0 .4-.3.7-.7.7H162.5c-.4 0-.7-.3-.7-.7v-49.5c0-.4.3-.7.7-.7zM218.6 397.3v48.9M295.9 397.3v48.9"/></svg>