<?xml version="1.0" encoding="utf-8"?>
<!-- Generator: Adobe Illustrator 22.1.0, SVG Export Plug-In . SVG Version: 6.00 Build 0)  -->
<svg version="1.1" id="Layer_1" xmlns="http://www.w3.org/2000/svg" xmlns:xlink="http://www.w3.org/1999/xlink" x="0px" y="0px" width="30" height="30"
	 viewBox="0 0 250 250" style="enable-background:new 0 0 250 250;" xml:space="preserve">
<style type="text/css">
	.st0{fill:#E44D26;}
	.st1{fill:#F16529;}
	.st2{fill:#EBEBEB;}
	.st3{fill:#FFFFFF;}
</style>
<title>HTML5 Logo</title>
<path d="M52.9,0h11.2v11.1h10.4V0h11.2v33.7H74.5V22.5H64.3v11.2H52.9 M100.6,11.2h-9.9V0h31.1v11.2h-10v22.5h-11.2 M126.7,0h11.8
	l7.2,11.9L152.9,0h11.8v33.7h-11.2V17l-7.9,12.1L137.7,17v16.7h-11 M170.3,0h11.2v22.6h15.9v11.1h-27.1"/>
<path class="st0" d="M52.5,230L36.4,49.1h177.1l-16.1,180.8L124.9,250"/>
<path class="st1" d="M125,234.6V64h72.4l-13.8,154.3"/>
<path class="st2" d="M69.3,86.1H125v22.2H93.7l2.1,22.7H125v22.1H75.4 M76.4,164.2h22.3l1.6,17.7l24.8,6.6v23.1L79.5,199"/>
<path class="st3" d="M180.5,86.1h-55.6v22.2h53.5 M176.4,131h-51.5v22.2h27.3l-2.6,28.8l-24.8,6.6v23l45.4-12.6"/>
</svg>
