<?xml version="1.0" encoding="utf-8"?>
<!-- Generator: Adobe Illustrator 22.1.0, SVG Export Plug-In . SVG Version: 6.00 Build 0)  -->
<svg version="1.1" id="Capa_1" xmlns="http://www.w3.org/2000/svg" xmlns:xlink="http://www.w3.org/1999/xlink" x="0px" y="0px" width="30" height="30"
	 viewBox="0 0 250 250" style="enable-background:new 0 0 250 250;" xml:space="preserve">
<style type="text/css">
	.st0{fill:#261300;}
	.st1{fill:#FF7C00;}
</style>
<g>
	<path class="st0" d="M10.4,13.5h229.2v222.9H10.4V13.5z"/>
	<path class="st1" d="M0,3.1v243.8h250V3.1H0z M10.4,13.5h229.2v222.9H10.4V13.5z"/>
	<path class="st1" d="M86.8,141.1l-8.2,31.2c-0.2,0.8-0.5,1-1.6,1H61.7c-1,0-1.2-0.3-1-1.6L90.2,68.3c0.5-1.9,0.8-3.5,1-8.6
		c0-0.7,0.3-1,0.8-1H114c0.7,0,1,0.2,1.2,1l33.1,112.4c0.2,0.8,0,1.4-0.8,1.4h-17.3c-0.8,0-1.4-0.2-1.6-0.9l-8.6-31.4H86.8
		L86.8,141.1z M115.7,124.3c-2.9-11.6-9.8-36.8-12.4-49h-0.2c-2.2,12.2-7.7,32.8-12.1,49H115.7z M162.6,66.4
		c0-6.7,4.7-10.6,10.6-10.6c6.4,0,10.6,4.3,10.6,10.6c0,6.9-4.5,10.6-10.8,10.6C167,77,162.6,73.2,162.6,66.4L162.6,66.4z M163.9,90
		c0-0.8,0.3-1.2,1.2-1.2h16.4c0.8,0,1.2,0.3,1.2,1.2v82.2c0,0.8-0.2,1.2-1.2,1.2h-16.1c-1,0-1.4-0.5-1.4-1.4V90H163.9z"/>
</g>
</svg>
