<?xml version="1.0" encoding="utf-8"?>
<!-- Generator: Adobe Illustrator 22.1.0, SVG Export Plug-In . SVG Version: 6.00 Build 0)  -->
<svg version="1.1" id="Layer_1" xmlns="http://www.w3.org/2000/svg" xmlns:xlink="http://www.w3.org/1999/xlink" x="0px" y="0px" width="30" height="30"
	 viewBox="0 0 250 250" style="enable-background:new 0 0 250 250;" xml:space="preserve">
<style type="text/css">
	.st0{fill:#F7DF1E;}
</style>
<rect x="0" class="st0" width="250" height="250"/>
<path d="M167.9,195.3c5,8.2,11.6,14.3,23.2,14.3c9.7,0,16-4.9,16-11.6c0-8.1-6.4-10.9-17.1-15.6l-5.9-2.5
	c-17-7.2-28.2-16.3-28.2-35.4c0-17.6,13.4-31,34.4-31c14.9,0,25.7,5.2,33.4,18.8L205.4,144c-4-7.2-8.4-10.1-15.1-10.1
	c-6.9,0-11.2,4.4-11.2,10.1c0,7,4.4,9.9,14.4,14.3l5.9,2.5c20,8.6,31.2,17.3,31.2,36.9c0,21.2-16.6,32.7-38.9,32.7
	c-21.8,0-35.9-10.4-42.8-24L167.9,195.3z M84.9,197.3c3.7,6.5,7,12.1,15.1,12.1c7.7,0,12.6-3,12.6-14.8v-79.9h23.5V195
	c0,24.3-14.3,35.4-35.1,35.4c-18.8,0-29.7-9.7-35.2-21.5L84.9,197.3z"/>
</svg>
