<?xml version="1.0" encoding="utf-8"?>
<!-- Generator: Adobe Illustrator 22.1.0, SVG Export Plug-In . SVG Version: 6.00 Build 0)  -->
<svg version="1.1" id="Capa_1" xmlns="http://www.w3.org/2000/svg" xmlns:xlink="http://www.w3.org/1999/xlink" x="0px" y="0px" width="30" height="30"
	 viewBox="0 0 250 250" style="enable-background:new 0 0 250 250;" xml:space="preserve">
<style type="text/css">
	.st0{fill:#001D26;}
	.st1{fill:#00C8FF;}
</style>
<path class="st0" d="M10.4,13.5h229.2v222.9H10.4V13.5z"/>
<path class="st1" d="M0,3.1v243.8h250V3.1H0z M10.4,13.5h229.2v222.9H10.4V13.5z M60.4,60.2c0-0.7,1.5-1.2,2.3-1.2
	c6.7-0.3,16.6-0.5,26.9-0.5c28.9,0,40.1,15.8,40.1,36.1c0,26.5-19.2,37.8-42.7,37.8c-4,0-5.3-0.2-8.1-0.2v40c0,0.8-0.3,1.2-1.2,1.2
	H61.7c-0.8,0-1.2-0.3-1.2-1.2V60.2L60.4,60.2z M79,115.5c2.4,0.2,4.3,0.2,8.4,0.2c12.2,0,23.6-4.3,23.6-20.8
	C111,81.7,102.8,75,89,75c-4.2,0-8.1,0.2-10,0.3L79,115.5L79,115.5z M168.5,103.1c-8.2,0-11,4.2-11,7.6c0,3.8,1.9,6.4,12.9,12.1
	c16.4,7.9,21.5,15.5,21.5,26.7c0,16.7-12.7,25.6-29.9,25.6c-9.1,0-16.9-1.9-21.4-4.5c-0.7-0.3-0.8-0.8-0.8-1.7v-15.3
	c0-1,0.5-1.4,1.2-0.8c6.6,4.3,14.1,6.1,20.9,6.1c8.2,0,11.7-3.4,11.7-8.1c0-3.8-2.4-7.1-12.9-12.5c-14.8-7.1-20.9-14.3-20.9-26.3
	c0-13.4,10.5-24.6,28.8-24.6c9,0,15.2,1.4,18.6,2.9c0.8,0.5,1,1.4,1,2.1v14.3c0,0.8-0.5,1.4-1.6,1
	C182.1,104.9,175.3,103.1,168.5,103.1L168.5,103.1z"/>
</svg>
