<?xml version="1.0" encoding="utf-8"?>
<!-- Generator: Adobe Illustrator 22.1.0, SVG Export Plug-In . SVG Version: 6.00 Build 0)  -->
<svg version="1.1" id="Layer_1" xmlns="http://www.w3.org/2000/svg" xmlns:xlink="http://www.w3.org/1999/xlink" x="0px" y="0px" width="30" height="30"
	 viewBox="0 0 250 250" style="enable-background:new 0 0 250 250;" xml:space="preserve">
<style type="text/css">
	.st0{fill:#CD6799;}
</style>
<path class="st0" d="M213.5,138.8c-8.6,0-16,2.1-22.2,5.2c-2.3-4.5-4.6-8.6-5-11.5c-0.4-3.5-1-5.6-0.4-9.7c0.5-4.1,3-10,2.9-10.5
	c0-0.4-0.5-2.6-5.5-2.6c-4.9,0-9.2,0.9-9.7,2.2s-1.4,4.3-2.1,7.3c-0.9,4.5-9.9,20.5-15,28.9c-1.7-3.3-3.1-6.1-3.4-8.4
	c-0.4-3.5-1-5.6-0.4-9.7c0.5-4.1,3-10,2.9-10.5s-0.5-2.6-5.5-2.6c-4.9,0-9.2,0.9-9.7,2.2c-0.5,1.3-1,4.4-2.1,7.3
	c-1,3-13,29.7-16.1,36.6c-1.6,3.5-3,6.4-4,8.3l0,0c0,0,0,0.1-0.2,0.4c-0.9,1.7-1.3,2.6-1.3,2.6s0,0,0,0c-0.7,1.2-1.4,2.3-1.7,2.3
	c-0.3,0-0.8-3.2,0.1-7.6c1.8-9.3,6.1-23.7,6-24.2c0-0.3,0.8-2.8-2.8-4.1c-3.5-1.3-4.8,0.9-5.1,0.9c-0.3,0-0.5,0.8-0.5,0.8
	s3.9-16.2-7.4-16.2c-7.1,0-16.9,7.8-21.7,14.8c-3.1,1.7-9.6,5.2-16.5,9c-2.6,1.5-5.4,3-7.9,4.4c-0.2-0.2-0.4-0.4-0.5-0.6
	c-13.7-14.7-39.1-25-38-44.7c0.4-7.2,2.9-26,48.8-48.9c37.8-18.6,67.8-13.5,73-2c7.4,16.3-16.1,46.6-55.1,51
	c-14.9,1.7-22.7-4.1-24.7-6.2c-2.1-2.2-2.4-2.4-3.1-1.9c-1.3,0.7-0.4,2.7,0,3.9c1.2,3.1,6,8.4,14.1,11.1c7.2,2.3,24.6,3.6,45.8-4.5
	c23.6-9.2,42.1-34.6,36.7-55.9c-5.4-21.6-41.3-28.8-75.3-16.7c-20.2,7.2-42.1,18.5-57.8,33.2C4,89.4,1.1,104.6,2.3,111
	c4.4,22.6,35.5,37.3,48,48.2c-0.6,0.4-1.2,0.7-1.7,0.9c-6.2,3.1-30,15.5-35.9,28.7c-6.7,14.9,1.1,25.6,6.2,27
	c16,4.4,32.5-3.5,41.3-16.7c8.8-13.2,7.8-30.3,3.7-38.2c0-0.1-0.1-0.2-0.2-0.3c1.6-0.9,3.3-1.9,4.9-2.9c3.2-1.9,6.3-3.6,9-5.1
	c-1.5,4.2-2.6,9.2-3.2,16.3c-0.7,8.4,2.8,19.4,7.3,23.7c2,1.9,4.4,1.9,5.9,1.9c5.3,0,7.7-4.4,10.3-9.6c3.2-6.4,6.1-13.8,6.1-13.8
	s-3.6,20,6.2,20c3.6,0,7.2-4.7,8.8-7c0,0,0,0,0,0s0.1-0.1,0.3-0.4c0.4-0.6,0.6-0.9,0.6-0.9s0,0,0-0.1c1.4-2.5,4.7-8.2,9.5-17.7
	c6.2-12.2,12.2-27.5,12.2-27.5s0.5,3.7,2.4,9.9c1.1,3.6,3.3,7.6,5.1,11.5c-1.4,2-2.3,3.1-2.3,3.1s0,0,0,0c-1.2,1.5-2.4,3.2-3.8,4.8
	c-4.9,5.8-10.7,12.5-11.5,14.4c-0.9,2.3-0.7,3.9,1.1,5.3c1.3,1,3.6,1.1,6,1c4.4-0.3,7.5-1.4,9-2.1c2.4-0.9,5.2-2.2,7.8-4.1
	c4.8-3.5,7.7-8.6,7.4-15.3c-0.1-3.7-1.3-7.4-2.8-10.8c0.4-0.6,0.9-1.3,1.3-1.9c7.6-11.1,13.5-23.2,13.5-23.2s0.5,3.7,2.4,9.9
	c0.9,3.1,2.7,6.5,4.4,9.9c-7.1,5.8-11.5,12.5-13.1,16.9c-2.8,8.2-0.6,11.8,3.5,12.7c1.9,0.4,4.6-0.5,6.5-1.3
	c2.5-0.8,5.5-2.2,8.3-4.3c4.8-3.5,9.4-8.5,9.2-15.2c-0.1-3.1-0.9-6.1-2.1-9c6.1-2.5,13.9-3.9,23.8-2.7c21.4,2.5,25.6,15.8,24.8,21.4
	c-0.8,5.6-5.3,8.7-6.8,9.6s-2,1.3-1.8,1.9c0.2,1,0.9,0.9,2.2,0.8c1.7-0.3,11.2-4.5,11.6-14.8C248.2,153,235.7,138.6,213.5,138.8z
	 M48.8,194.3c-7.1,7.7-17,10.6-21.2,8.2c-4.6-2.6-2.8-14,5.9-22.2c5.3-5,12.1-9.6,16.6-12.4c1-0.6,2.6-1.5,4.4-2.6
	c0.3-0.2,0.5-0.3,0.5-0.3l0,0c0.4-0.2,0.7-0.4,1.1-0.7C59.3,175.9,56.2,186.2,48.8,194.3z M100.4,159.2c-2.5,6-7.6,21.4-10.8,20.5
	c-2.7-0.7-4.4-12.4-0.5-23.9c1.9-5.8,6-12.7,8.4-15.4c3.9-4.3,8.1-5.7,9.2-4C107.9,138.8,101.9,155.4,100.4,159.2z M142.9,179.6
	c-1,0.5-2,0.9-2.5,0.6c-0.3-0.2,0.4-0.9,0.4-0.9s5.3-5.7,7.4-8.3c1.2-1.5,2.6-3.3,4.2-5.3c0,0.2,0,0.4,0,0.6
	C152.5,173.1,145.9,177.7,142.9,179.6z M175.8,172.1c-0.8-0.5-0.6-2.3,1.9-7.9c1-2.2,3.3-5.9,7.3-9.4c0.4,1.4,0.8,2.8,0.7,4.1
	C185.7,167.5,179.5,170.7,175.8,172.1z"/>
</svg>
