<?xml version="1.0" encoding="utf-8"?>
<!-- Generator: Adobe Illustrator 22.1.0, SVG Export Plug-In . SVG Version: 6.00 Build 0)  -->
<svg version="1.1" id="Layer_1" xmlns="http://www.w3.org/2000/svg" xmlns:xlink="http://www.w3.org/1999/xlink" x="0px" y="0px" width="30" height="30"
	 viewBox="0 0 250 250" style="enable-background:new 0 0 250 250;" xml:space="preserve">
<style type="text/css">
	.st0{fill:#FFAE00;}
	.st1{fill:#EC6C00;}
	.st2{fill:#FFEFB4;}
	.st3{fill:#FED305;}
</style>
<title>Group</title>
<desc>Created with Sketch.</desc>
<g id="Page-1">
	<g id="Sketch-Flat-Logo" transform="translate(-9.000000, -28.000000)">
		<g id="Group" transform="translate(9.000000, 28.000000)">
			<g id="Base">
				<polygon id="Polygon" class="st0" points="125,236.3 2,93.4 55.3,21.2 125,13.7 194.7,21.2 248,93.4 				"/>
			</g>
			<g id="Bottom-Back" transform="translate(0.000000, 160.000000)">
				<polygon id="Polygon_1_" class="st1" points="125,76.3 2,-66.6 248,-66.6 				"/>
			</g>
			<g id="Bottom-Mid" transform="translate(100.000000, 160.000000)">
				<polygon id="Polygon_2_" class="st0" points="25,76.3 -48.2,-66.6 98.2,-66.6 				"/>
			</g>
			<g id="Top-Mid" transform="translate(100.000000, 0.000000)">
				<polygon id="Polygon_3_" class="st2" points="25,13.7 -48.2,93.4 98.2,93.4 				"/>
			</g>
			<g id="Top-Side-Left" transform="translate(0.000000, 15.000000)">
				<polygon id="Polygon_4_" class="st0" points="55.3,6.2 27.9,42.5 2,78.4 52.3,78.4 				"/>
			</g>
			
				<g id="Top-Side-Right" transform="translate(440.500000, 87.500000) scale(-1, 1) translate(-440.500000, -87.500000) translate(387.000000, 15.000000)">
				<polygon id="Polygon_5_" class="st0" points="299.3,6.2 271.9,42.5 246,78.4 296.3,78.4 				"/>
			</g>
			<g id="Top-Left" transform="translate(100.000000, 0.000000)">
				<polygon id="Polygon_6_" class="st3" points="-44.7,21.2 -48.2,93.4 25,13.7 				"/>
			</g>
			<g id="Top-Right" transform="translate(247.000000, 0.000000)">
				<polygon id="Polygon_7_" class="st3" points="-52.3,21.2 -48.8,93.4 -122,13.7 				"/>
			</g>
		</g>
	</g>
</g>
</svg>
