<?xml version="1.0" encoding="utf-8"?>
<!-- Generator: Adobe Illustrator 22.1.0, SVG Export Plug-In . SVG Version: 6.00 Build 0)  -->
<svg version="1.1" id="Layer_1" xmlns="http://www.w3.org/2000/svg" xmlns:xlink="http://www.w3.org/1999/xlink" x="0px" y="0px" width="40" height="40"
	 viewBox="0 0 40 40" style="enable-background:new 0 0 40 40;" xml:space="preserve">
<style type="text/css">
	.st0{fill:#FF8000;}
	.st1{fill:#FFFFFF;}
</style>
<rect x="0" class="st0" width="40" height="40"/>
<g>
	<path class="st1" d="M15.4,16.2c-0.1-0.9-0.9-2.4-3.2-2.4c-1.7,0-2.6,1-2.6,2.1c0,0.9,0.6,1.7,1.8,1.8l2.6,0.5
		c3.8,0.6,5.6,3.1,5.6,5.8c0,3.1-2.6,6.2-7.2,6.2c-5.4,0-7.8-3.5-7.9-6.3l4-1c0.1,1.8,1.4,3.3,4.1,3.3c1.7,0,2.8-0.8,2.8-2
		c0-1-0.8-1.7-2.1-2l-2.6-0.5c-3.3-0.6-5.3-2.9-5.3-5.8c0-3.7,3.2-6.3,7-6.3c4.9,0,6.7,2.9,7.2,5.2L15.4,16.2z"/>
	<path class="st1" d="M27.3,22.6h-1.5v7.3h-4.3V10.2h7.8c3.8,0,6.3,2.6,6.3,6.1c0,2.6-1.4,4.6-3.8,5.5l4,7.9H31L27.3,22.6z
		 M28.4,18.8c1.8,0,2.8-1,2.8-2.3c0-1.4-1-2.3-2.8-2.3h-2.6v4.7L28.4,18.8L28.4,18.8z"/>
</g>
</svg>
