<svg version="1.1" id="Layer_2_1_" xmlns="http://www.w3.org/2000/svg" x="0" y="0" viewBox="0 0 512 512" xml:space="preserve"><style>.st0{fill:none;stroke:#000;stroke-width:10;stroke-miterlimit:10}</style><path class="st0" d="M497.2 80.9H14.9M471.8 46.7h-27.4M435.1 46.7h-27.3M398.5 46.7h-27.4M51.9 251.7h116.3v60.7H51.9zM197.8 251.7h116.3v60.7H197.8zM343.8 251.7h116.3v60.7H343.8zM46.9 109.5h199.9V217H46.9zM281.5 109.5h183.6M281.5 145.3h183.6M281.5 181.2h183.6M281.5 217h183.6"/><path class="st0" d="M451.1 397.3H60.9c-25.3 0-46-20.7-46-46V60.9c0-25.3 20.7-46 46-46h390.3c25.3 0 46 20.7 46 46v290.4c-.1 25.3-20.8 46-46.1 46zM14.9 312.4h482.2M200.3 353h75.3m9.5 0h26.6M162.5 446.2h186.9c.4 0 .7.3.7.7v49.5c0 .4-.3.7-.7.7H162.5c-.4 0-.7-.3-.7-.7v-49.5c0-.4.3-.7.7-.7zM218.6 397.3v48.9M295.9 397.3v48.9"/></svg>