<?xml version="1.0" encoding="utf-8"?>
<!-- Generator: Adobe Illustrator 22.1.0, SVG Export Plug-In . SVG Version: 6.00 Build 0)  -->
<svg version="1.1" id="ps_x5F_cc_x5F_app_x5F_RGB.svg"
	 xmlns="http://www.w3.org/2000/svg" xmlns:xlink="http://www.w3.org/1999/xlink" x="0px" y="0px" viewBox="0 0 250 250" width="30" height="30"
	 style="enable-background:new 0 0 250 250;" xml:space="preserve">
<style type="text/css">
	.st0{fill:#FF26BE;}
	.st1{fill:#2E001F;}
	.st2{fill:#FFD9F2;}
</style>
<path class="st0" d="M205.7,246.9H44.3C19.8,246.9,0,227.1,0,202.6V47.4C0,22.9,19.8,3.1,44.3,3.1h161.5c24.5,0,44.3,19.8,44.3,44.3
	v155.2C250,227.1,230.2,246.9,205.7,246.9z"/>
<path class="st1" d="M201.8,236.5H48.2c-20.8,0-37.8-17-37.8-37.8V51.4c0-20.8,17-37.8,37.8-37.8h153.4c20.9,0,37.8,17,37.8,37.8
	v147.2C239.6,219.5,222.6,236.5,201.8,236.5z"/>
<path class="st2" d="M98.9,117.2l29.2,56c0.5,0.8,0.2,1.7-0.6,1.7h-18.1c-1.1,0-1.7-0.3-2.2-1.4c-6.7-13.8-13.4-27.5-20.4-42.3h-0.2
	c-6.2,14-13.1,28.6-19.8,42.4c-0.5,0.8-1,1.1-1.9,1.1H47.6c-1,0-1.1-0.8-0.6-1.5L75.5,119L47.9,64c-0.6-0.8,0-1.5,0.6-1.5h17.9
	c1,0,1.5,0.2,1.9,1.1c6.6,13.7,13.2,27.9,19.5,41.8H88c6-13.8,12.7-28,19.2-41.7c0.5-0.8,0.8-1.4,1.9-1.4h16.8
	c0.8,0,1.1,0.6,0.6,1.5L98.9,117.2z M133.1,134.2c0-24.3,16.1-43.2,41.8-43.2c2.2,0,3.3,0,5.4,0.2V63.5c0-0.6,0.5-1,1-1h16.5
	c0.8,0,1,0.3,1,0.8V159c0,2.8,0,6.4,0.5,10.2c0,0.6-0.2,0.8-0.8,1.1c-8.8,4.2-17.9,6-26.7,6C149.3,176.5,133.1,162.5,133.1,134.2z
	 M180.3,107.5c-1.5-0.6-3.5-1-6-1c-13.1,0-22.3,10.1-22.3,26.9c0,19.2,9.4,26.9,21.1,26.9c2.5,0,5.2-0.3,7.2-1.1V107.5z"/>
</svg>
